<?xml version="1.0" encoding="iso-8859-1"?>
<!-- Generator: Adobe Illustrator 17.1.0, SVG Export Plug-In . SVG Version: 6.00 Build 0)  -->
<!DOCTYPE svg PUBLIC "-//W3C//DTD SVG 1.1//EN" "http://www.w3.org/Graphics/SVG/1.1/DTD/svg11.dtd">
<svg version="1.1" id="Capa_1" xmlns="http://www.w3.org/2000/svg" xmlns:xlink="http://www.w3.org/1999/xlink" x="0px" y="0px"
	 viewBox="0 0 438.877 438.877" style="enable-background:new 0 0 438.877 438.877;" xml:space="preserve">
<g>
	<path d="M12.5,257.087c6.893,0,12.5-5.607,12.5-12.5s-5.607-12.5-12.5-12.5S0,237.694,0,244.587S5.607,257.087,12.5,257.087z"/>
	<path d="M314.104,163.975c-3.905-3.904-10.237-3.904-14.142,0l-30.396,30.396c-3.905,3.905-3.905,10.237,0,14.143
		c1.953,1.952,4.512,2.929,7.071,2.929s5.119-0.977,7.071-2.929l30.396-30.396C318.009,174.213,318.009,167.881,314.104,163.975z"/>
	<path d="M297.85,236.799c1.953,1.952,4.512,2.929,7.071,2.929s5.119-0.977,7.071-2.929l60.792-60.793
		c3.905-3.905,3.905-10.237,0-14.143c-3.905-3.904-10.237-3.904-14.142,0l-60.792,60.793
		C293.945,226.561,293.945,232.893,297.85,236.799z"/>
	<path d="M435.948,173.653L332.711,70.416c-3.905-3.904-10.237-3.904-14.143,0l-36.671,36.671H158.132
		c-28.513,0-55.662,12.992-73.632,35H65v-15c0-5.522-4.477-10-10-10H10c-5.523,0-10,4.478-10,10s4.477,10,10,10h35v140H10
		c-5.523,0-10,4.478-10,10s4.477,10,10,10h45c5.523,0,10-4.478,10-10v-25h19.5c17.97,22.008,45.12,35,73.632,35h11.634
		l71.374,71.374c1.953,1.952,4.512,2.929,7.071,2.929s5.119-0.977,7.071-2.929l180.666-180.665c1.875-1.876,2.929-4.419,2.929-7.071
		S437.823,175.529,435.948,173.653z M97.49,246.197c-1.882-2.583-4.886-4.11-8.082-4.11H65v-80h24.409
		c3.196,0,6.199-1.527,8.082-4.11c14.097-19.342,36.767-30.89,60.642-30.89h103.765l-59.329,59.329
		c-8.342-6.105-15.778-13.533-22.035-22.132c-3.249-4.466-9.502-5.452-13.97-2.203c-4.466,3.249-5.452,9.503-2.203,13.969
		c18.975,26.082,46.971,43.213,78.831,48.237c6.128,0.967,10.327,6.738,9.361,12.866c-0.966,6.127-6.73,10.32-12.865,9.359
		c-27.679-4.365-53.162-16.509-73.692-35.118c-4.092-3.709-10.416-3.399-14.125,0.693c-3.709,4.092-3.399,10.416,0.693,14.125
		c1.792,1.624,3.627,3.19,5.483,4.727l-20.143,20.142c-1.875,1.875-2.929,4.419-2.929,7.071s1.054,5.195,2.929,7.071l11.327,11.326
		C128.711,274.07,109.821,263.115,97.49,246.197z M248.211,347.247l-89.096-89.095l15.308-15.307
		c18.728,11.901,39.808,19.899,62.148,23.422c1.643,0.259,3.273,0.385,4.886,0.385c15.102-0.002,28.425-11.007,30.85-26.385
		c2.684-17.021-8.979-33.052-26-35.737c-9.055-1.428-17.734-4.03-25.871-7.698L325.64,91.63l89.095,89.095L248.211,347.247z"/>
</g>
<g>
</g>
<g>
</g>
<g>
</g>
<g>
</g>
<g>
</g>
<g>
</g>
<g>
</g>
<g>
</g>
<g>
</g>
<g>
</g>
<g>
</g>
<g>
</g>
<g>
</g>
<g>
</g>
<g>
</g>
</svg>
