<?xml version="1.0" encoding="iso-8859-1"?>
<!-- Generator: Adobe Illustrator 19.0.0, SVG Export Plug-In . SVG Version: 6.00 Build 0)  -->
<svg version="1.1" id="Capa_1" xmlns="http://www.w3.org/2000/svg" xmlns:xlink="http://www.w3.org/1999/xlink" x="0px" y="0px"
	 viewBox="0 0 512 512" style="enable-background:new 0 0 512 512;" xml:space="preserve">
<g>
	<g>
		<path d="M87.661,448.903h-40.08c-4.142,0-7.5,3.358-7.5,7.5c0,4.142,3.358,7.5,7.5,7.5h40.081c4.142,0,7.5-3.358,7.5-7.5
			C95.162,452.261,91.803,448.903,87.661,448.903z"/>
	</g>
</g>
<g>
	<g>
		<path d="M111.709,416.839H47.581c-4.142,0-7.5,3.358-7.5,7.5c0,4.142,3.358,7.5,7.5,7.5h64.129c4.142,0,7.5-3.358,7.5-7.5
			C119.21,420.197,115.852,416.839,111.709,416.839z"/>
	</g>
</g>
<g>
	<g>
		<path d="M496.484,248.5H387.75V15.516C387.75,6.96,380.79,0,372.234,0H139.766c-8.556,0-15.516,6.96-15.516,15.516V248.5H15.516
			C6.96,248.5,0,255.46,0,264.016v232.468C0,505.04,6.96,512,15.516,512h480.968c8.556,0,15.516-6.96,15.516-15.516V264.016
			C512,255.46,505.04,248.5,496.484,248.5z M392.79,263.5v65.161h-25.081V263.5H392.79z M268.54,15v65.161h-25.081V15H268.54z
			 M119.209,263.5h25.081v65.161h-25.081V263.5z M496.484,497H263.5V263.5h48.613c4.142,0,7.5-3.358,7.5-7.5
			c0-4.142-3.358-7.5-7.5-7.5H199.887c-4.142,0-7.5,3.358-7.5,7.5c0,4.142,3.358,7.5,7.5,7.5H248.5V497H15.516
			c-0.285,0-0.516-0.231-0.516-0.516V264.016c0-0.285,0.231-0.516,0.516-0.516h88.693v72.661c0,4.142,3.358,7.5,7.5,7.5h40.081
			c4.142,0,7.5-3.358,7.5-7.5V263.5h8.528c4.142,0,7.5-3.358,7.5-7.5c0-4.142-3.358-7.5-7.5-7.5H139.25V15.516
			c0-0.285,0.231-0.516,0.516-0.516h88.693v72.661c0,4.142,3.358,7.5,7.5,7.5h40.081c4.142,0,7.5-3.358,7.5-7.5V15h88.693
			c0.285,0,0.516,0.231,0.516,0.516V248.5H344.18c-4.142,0-7.5,3.358-7.5,7.5c0,4.142,3.358,7.5,7.5,7.5h8.528v72.661
			c0,4.142,3.358,7.5,7.5,7.5h40.081c4.142,0,7.5-3.358,7.5-7.5V263.5h88.693c0.285,0,0.516,0.231,0.516,0.516v232.468H497
			C497,496.769,496.769,497,496.484,497z"/>
	</g>
</g>
<g>
	<g>
		<path d="M336.161,448.903H296.08c-4.142,0-7.5,3.358-7.5,7.5c0,4.142,3.358,7.5,7.5,7.5h40.081c4.142,0,7.5-3.358,7.5-7.5
			C343.661,452.261,340.303,448.903,336.161,448.903z"/>
	</g>
</g>
<g>
	<g>
		<path d="M360.209,416.839H296.08c-4.142,0-7.5,3.358-7.5,7.5c0,4.142,3.358,7.5,7.5,7.5h64.129c4.142,0,7.5-3.358,7.5-7.5
			C367.709,420.197,364.352,416.839,360.209,416.839z"/>
	</g>
</g>
<g>
	<g>
		<path d="M211.911,200.403H171.83c-4.142,0-7.5,3.358-7.5,7.5c0,4.142,3.358,7.5,7.5,7.5h40.081c4.142,0,7.5-3.358,7.5-7.5
			C219.411,203.761,216.053,200.403,211.911,200.403z"/>
	</g>
</g>
<g>
	<g>
		<path d="M235.959,168.339H171.83c-4.142,0-7.5,3.358-7.5,7.5c0,4.142,3.358,7.5,7.5,7.5h64.129c4.142,0,7.5-3.358,7.5-7.5
			C243.459,171.697,240.102,168.339,235.959,168.339z"/>
	</g>
</g>
<g>
</g>
<g>
</g>
<g>
</g>
<g>
</g>
<g>
</g>
<g>
</g>
<g>
</g>
<g>
</g>
<g>
</g>
<g>
</g>
<g>
</g>
<g>
</g>
<g>
</g>
<g>
</g>
<g>
</g>
</svg>
